# xmcd CD database file
#
# Track frame offsets:
#	150
#	19415
#	42172
#	63297
#	79902
#	82427
#	101620
#	123155
#	143052
#	146957
#	169207
#	191890
#
# Disc length: 2842 seconds
#
# Revision: 1
# Processed by: cddbd v1.5.1PL0 Copyright (c) Steve Scherf et al.
# Submitted via: CDex 1.51
#
DISCID=b20b180c
DTITLE=MASAHIRO IKUMI - JAZZING
DYEAR=1900
DGENRE=Jazz
TTITLE0=Struttin'
TTITLE1=Kapalua - bay
TTITLE2=Jazzy njght
TTITLE3=Back to the Essence
TTITLE4=Sputnix "Radio Mix"
TTITLE5=On the turn table
TTITLE6=Jazz for real
TTITLE7=Killer Joe
TTITLE8=Sputnik #1
TTITLE9=Metaphor of jazz
TTITLE10=Feel the groove
TTITLE11=Livin' in the jungle
EXTD=
EXTT0=
EXTT1=
EXTT2=
EXTT3=
EXTT4=
EXTT5=
EXTT6=
EXTT7=
EXTT8=
EXTT9=
EXTT10=
EXTT11=
PLAYORDER=
